# xmcd
#
# Track frame offsets:
#	150
#	5157
#	20605
#	34097
#	56445
#	72342
#	86692
#	105725
#	119132
#	139252
#	151757
#	174845
#
# Disc length: 2583 seconds
#
# Revision: 0
# Processed by: cddbd v1.5.2PL0 Copyright (c) Steve Scherf et al.
# Submitted via: dBpowerAMP V4.0
#
DISCID=9f0a150c
DTITLE=R.L. Burnside - Come On In
DYEAR=1998
DGENRE=Blues
TTITLE0=Been Mistreated
TTITLE1=Come on In (Live)
TTITLE2=Let My Baby Ride
TTITLE3=Don't Stop Honey
TTITLE4=It's Bad You Know
TTITLE5=Just Like a Woman
TTITLE6=Come on In, Pt. 2
TTITLE7=Rollin' Tumblin' (Remix)
TTITLE8=Please Don't Stay
TTITLE9=Shuck Dub
TTITLE10=Come on In, Pt. 3
TTITLE11=Heat
EXTD=
EXTT0=
EXTT1=
EXTT2=
EXTT3=
EXTT4=
EXTT5=
EXTT6=
EXTT7=
EXTT8=
EXTT9=
EXTT10=
EXTT11=
PLAYORDER=
